<svg width="238" height="314" viewBox="0 0 238 314" fill="none" xmlns="http://www.w3.org/2000/svg">
<g clip-path="url(#clip0_227:1961)">
<path d="M13.9357 216.218C16.0391 208.122 18.8687 200.232 22.3901 192.645C23.8008 188.978 26.0932 185.716 29.0645 183.146C38.6648 176.021 55.7149 180.69 66.4033 181.519C80.0192 182.797 93.7277 180.365 106.076 174.482C115.193 169.898 123.058 163.162 128.991 154.857C135.945 145.103 139.653 132.794 134.149 121.454C132.202 117.726 129.677 114.329 126.668 111.39C120.099 104.689 112.394 99.2052 103.912 95.1932C94.6778 90.8271 84.3826 90.044 75.1451 85.9089C61.1895 79.6801 62.3173 64.9329 66.2902 52.5003C70.2632 40.0676 75.5988 27.2989 83.7758 16.7858C87.1551 12.4624 91.933 7.81249 97.7669 7.65113C102.527 7.535 108.336 10.322 112.665 12.062C118.318 14.3661 123.786 17.0992 129.022 20.2373C140.78 27.4827 152.004 35.5602 162.61 44.4078C173.986 53.6978 183.536 65.0239 190.771 77.8082C202.074 98.0912 207.879 120.98 207.608 144.202C207.279 177.739 193.186 209.152 173.436 235.734C159.041 255.114 139.547 272.164 115.575 277.566C102.315 280.559 88.5622 280.371 74.9547 280.143C63.5657 280.193 52.1835 279.578 40.8663 278.301C31.4466 277.054 18.0829 275.828 11.8082 267.704C8.10361 262.865 7.54014 256.363 8.14789 250.324C9.19338 238.823 11.1284 227.42 13.9357 216.218Z" fill="#F6A772"/>
</g>
<defs>
<clipPath id="clip0_227:1961">
<rect width="172.758" height="278.267" fill="white" transform="translate(70.9434) rotate(14.7704)"/>
</clipPath>
</defs>
</svg>
